<svg xmlns="http://www.w3.org/2000/svg" viewBox="0 0 448.9 134.9"><title>fixany_white</title><g id="Layer_2" data-name="Layer 2"><g id="Layer_1-2" data-name="Layer 1"><path d="M127.6,40.2l-12.8,63.6a3.3,3.3,0,0,1-3.3,2.7H98a3.4,3.4,0,0,1-3.4-4l12.8-63.7a3.4,3.4,0,0,1,3.3-2.7h13.5A3.5,3.5,0,0,1,127.6,40.2Z" style="fill:#fff"/><path d="M179.5,74.8l13.4,23.8a5.3,5.3,0,0,1-4.8,7.9h-9.3a5.4,5.4,0,0,1-4.8-2.8l-6.5-12.1a5.5,5.5,0,0,0-8.8-1.2L145,104.9a5.5,5.5,0,0,1-3.9,1.6h-8.3a5.3,5.3,0,0,1-3.9-9.1l23.8-24.1a5.4,5.4,0,0,0,.8-6.4L141,44.1a5.4,5.4,0,0,1,4.7-8h9a5.5,5.5,0,0,1,4.8,2.8l6.1,11.4a5.5,5.5,0,0,0,8.8,1.1l13-13.6a5.4,5.4,0,0,1,3.9-1.7H199a5.4,5.4,0,0,1,3.9,9.1L180.3,68.5A5.3,5.3,0,0,0,179.5,74.8Z" style="fill:#fff"/><path d="M261.9,40.9h0a3.4,3.4,0,0,1-5.6,1.9c-4.7-3.9-11.2-5.7-18.8-5.7-22,0-39.2,17.3-39.2,40.9,0,20.1,14.1,31.6,30.6,31.6a31.9,31.9,0,0,0,21.8-8l-.6,2.9a3.4,3.4,0,0,0,3.4,4h12.6a3.4,3.4,0,0,0,3.4-2.7l12.7-63.6a3.4,3.4,0,0,0-3.3-4.1H265.3A3.6,3.6,0,0,0,261.9,40.9ZM235.3,92.7c-10.4,0-16.3-6-16.3-15.6,0-13.7,8.7-23.1,20.9-23.1,10.3,0,16.2,6,16.2,15.5C256.1,83.3,247.4,92.7,235.3,92.7Z" style="fill:#fff"/><path d="M363.4,62a37.7,37.7,0,0,1-1,8.5L354.8,108a1.9,1.9,0,0,1-1.9,1.5H336.2a1.9,1.9,0,0,1-1.9-2.2l7.3-35.5a28,28,0,0,0,.5-4.8c0-7.2-4-11.3-12.2-11.3-10.4,0-17.7,5.8-20.2,18.1L302.9,108a1.9,1.9,0,0,1-1.9,1.5H284.3a1.9,1.9,0,0,1-1.9-2.2l13.4-66.7a1.8,1.8,0,0,1,1.9-1.5h15.6a2,2,0,0,1,1.9,2.3v.2a2,2,0,0,0,3,2,34.5,34.5,0,0,1,19.4-5.5C353,38.1,363.4,46.4,363.4,62Z" style="fill:#fff"/><path d="M444.3,38a4.6,4.6,0,0,1,3.9,7l-42.9,68.2c-10.4,16.6-18.9,21.7-32.5,21.7a35.4,35.4,0,0,1-15-3.3A4.5,4.5,0,0,1,356,125l4.5-7a4.7,4.7,0,0,1,6.1-1.5,17,17,0,0,0,7.8,1.9c5.4,0,8.8-2.5,12.8-8.7l.7-1.1-15.1-65a4.5,4.5,0,0,1,4.5-5.6h11.1a4.6,4.6,0,0,1,4.5,3.6l7.3,33.1a4.7,4.7,0,0,0,8.5,1.5l22.2-36a4.7,4.7,0,0,1,4-2.2Z" style="fill:#fff"/><path d="M115.4.3a49,49,0,0,1-14.3,18.5A41.9,41.9,0,0,1,83,27.5H73.6a33.6,33.6,0,0,0,15.7-8.7A50.3,50.3,0,0,0,101.6.3Z" style="fill:#fff"/><path d="M92.6,0h0c-.1.1-.1.1-.1.2-1.9,5.3-5.2,12.4-10.9,18.2a30.1,30.1,0,0,1-14.1,8.6l-.8.2H24a19.7,19.7,0,0,1-5.7-5.8h0a24.6,24.6,0,0,1-3.7-8.9h0c0-.4-.1-.7-.1-1a34.6,34.6,0,0,1-.3-7.1c.2-1.6.4-3.1.6-4.4H92.6Z" style="fill:#fff"/><path d="M102.4,38.6c-.8,1.6-1.3,2.4-1.7,3.1C92.3,54.1,85.6,58.3,85.6,58.3a28.5,28.5,0,0,1-11.5,4.5,42.1,42.1,0,0,1-6.5.4c-1.7-.1-4-.4-5.9-.4H58.1c-.6,0-.9-.2-1.2,0s-.2.5-.3.7-.3.9-.9,2.1S54,70.5,54,70.5l-3.3,9.3a93.1,93.1,0,0,1-5,12.5c-2.3,4.4-4.9,9.5-10,13.2a29.6,29.6,0,0,1-8.9,4.1,40.3,40.3,0,0,1-7.1,1.4c-7.7,1.2-5.8,0-15.7.7-1.9.1-3.3.3-3.8-.7s1.1-4.1,2.9-7.6,3.4-8.3,5.1-12.5l7.4-18.4c5.8-15,6-16.9,9.1-21.8s5-7.8,9.5-10.8c2.8-1.8,6.1-3.2,15.6-4.1,4.6-.5,6.6-.4,20.1-.4h32.5c.9,0,1.1-.1,1.2,0S103.5,36.6,102.4,38.6Z" style="fill:#fff"/></g></g></svg>